<svg xmlns="http://www.w3.org/2000/svg" width="1024" height="1024" viewBox="0 0 1024 1024" fill="none">
  <defs>
    <linearGradient id="bg" x1="140" y1="120" x2="910" y2="910" gradientUnits="userSpaceOnUse">
      <stop offset="0" stop-color="#0B1220"/>
      <stop offset="1" stop-color="#15344F"/>
    </linearGradient>
    <linearGradient id="accent" x1="284" y1="320" x2="740" y2="760" gradientUnits="userSpaceOnUse">
      <stop offset="0" stop-color="#22D3EE"/>
      <stop offset="1" stop-color="#38BDF8"/>
    </linearGradient>
  </defs>

  <rect x="72" y="72" width="880" height="880" rx="214" fill="url(#bg)"/>
  <rect x="72" y="72" width="880" height="880" rx="214" stroke="#6B9AC2" stroke-opacity="0.22" stroke-width="4"/>

  <rect x="274" y="248" width="178" height="528" rx="56" fill="#0A1E32"/>
  <rect x="572" y="248" width="178" height="528" rx="56" fill="#0A1E32"/>

  <line x1="512" y1="248" x2="512" y2="776" stroke="#3A5670" stroke-width="8" stroke-linecap="round"/>

  <path d="M350 620C403 532 621 532 674 620" stroke="url(#accent)" stroke-width="56" stroke-linecap="round"/>

  <g stroke="#7DD3FC" stroke-width="22" stroke-linecap="round">
    <line x1="318" y1="372" x2="408" y2="372"/>
    <line x1="616" y1="372" x2="706" y2="372"/>
    <line x1="318" y1="466" x2="396" y2="466"/>
    <line x1="628" y1="466" x2="706" y2="466"/>
  </g>

  <g stroke="#34D399" stroke-width="22" stroke-linecap="round" opacity="0.92">
    <line x1="318" y1="708" x2="396" y2="708"/>
    <line x1="628" y1="708" x2="706" y2="708"/>
  </g>
</svg>
